<?xml version="1.0" encoding="UTF-8"?>
<!DOCTYPE svg PUBLIC "-//W3C//DTD SVG 1.1//EN" "http://www.w3.org/Graphics/SVG/1.1/DTD/svg11.dtd">
<!-- Creator: CorelDRAW 2021 (64 Bit) -->
<svg xmlns="http://www.w3.org/2000/svg" xml:space="preserve" width="87.5372mm" height="102.387mm" version="1.1" style="shape-rendering:geometricPrecision; text-rendering:geometricPrecision; image-rendering:optimizeQuality; fill-rule:evenodd; clip-rule:evenodd"
viewBox="0 0 8739.48 10222.06"
 xmlns:xlink="http://www.w3.org/1999/xlink"
 xmlns:xodm="http://www.corel.com/coreldraw/odm/2003">
 <defs>
  <style type="text/css">
   <![CDATA[
    .str0 {stroke:#FEFEFE;stroke-width:35.22;stroke-linecap:round;stroke-linejoin:round;stroke-miterlimit:22.9256}
    .str2 {stroke:#FEFEFE;stroke-width:33.54;stroke-linecap:round;stroke-linejoin:round;stroke-miterlimit:22.9256}
    .str1 {stroke:#FEFEFE;stroke-width:33.54;stroke-linecap:round;stroke-linejoin:round;stroke-miterlimit:22.9256}
    .str8 {stroke:#FEFEFE;stroke-width:33.54;stroke-linecap:round;stroke-linejoin:round;stroke-miterlimit:22.9256}
    .str6 {stroke:#FEFEFE;stroke-width:33.54;stroke-linecap:round;stroke-linejoin:round;stroke-miterlimit:22.9256}
    .str4 {stroke:#FEFEFE;stroke-width:33.54;stroke-linecap:round;stroke-linejoin:round;stroke-miterlimit:22.9256}
    .str9 {stroke:#FEFEFE;stroke-width:33.54;stroke-linecap:round;stroke-linejoin:round;stroke-miterlimit:22.9256}
    .str7 {stroke:#FEFEFE;stroke-width:33.54;stroke-linecap:round;stroke-linejoin:round;stroke-miterlimit:22.9256}
    .str5 {stroke:#FEFEFE;stroke-width:33.54;stroke-linecap:round;stroke-linejoin:round;stroke-miterlimit:22.9256}
    .str3 {stroke:#FEFEFE;stroke-width:33.54;stroke-linecap:square;stroke-miterlimit:22.9256}
    .fil7 {fill:none}
    .fil6 {fill:#FEFEFE}
    .fil4 {fill:#D897C2}
    .fil3 {fill:#2DB59F}
    .fil5 {fill:#3B75AF}
    .fil8 {fill:#FEFEFE;fill-rule:nonzero}
    .fil0 {fill:#3B75AF;fill-rule:nonzero}
    .fil1 {fill:#666666;fill-rule:nonzero}
    .fil2 {fill:#9C9D9F;fill-rule:nonzero}
   ]]>
  </style>
 </defs>
 <g id="Camada_x0020_1">
  <metadata id="CorelCorpID_0Corel-Layer"/>
  <g id="_2044398115936">
   <g>
    <path class="fil0" d="M1407.62 8984.44c0,89.29 -13.3,170.04 -39.9,243.18 -26.12,72.67 -67.44,135.37 -123.97,187.15 -56.05,52.24 -127.77,92.15 -214.21,120.64 -86.93,28.02 -190.95,42.28 -311.59,42.28 -106.88,0 -200.92,-11.4 -281.66,-34.67 -81.23,-23.28 -151.04,-57.48 -209.47,-103.07 -58.42,-45.61 -105.93,-102.12 -141.55,-169.09 -35.62,-67.45 -61.75,-144.87 -78.37,-231.79l325.37 -65.55c9.49,43.7 22.79,83.6 40.36,119.7 17.58,36.1 41.8,67.45 72.68,94.05 30.39,26.13 68.87,46.55 114.46,61.28 46.07,14.25 102.12,21.38 167.67,21.38 114.47,0 201.4,-20.91 261.72,-63.18 60.32,-42.27 90.72,-108.77 90.72,-198.55 0,-54.14 -11.88,-97.84 -36.1,-132.51 -24.23,-34.2 -56.53,-62.7 -96.9,-85.02 -40.37,-22.32 -86.92,-40.37 -139.64,-55.1 -52.72,-14.73 -106.87,-29.92 -163.39,-45.13 0,0 -46.07,-13.3 -138.69,-38.95 -45.6,-13.78 -88.83,-30.4 -130.15,-49.87 -41.32,-19.48 -79.79,-42.75 -115.42,-69.36 -35.62,-27.07 -66.49,-60.32 -93.09,-99.74 -26.61,-39.43 -47.02,-85.5 -61.75,-138.22 -14.73,-52.72 -22.32,-114.94 -22.32,-186.2 0,-97.37 16.14,-180.97 47.97,-250.31 31.82,-69.83 76.48,-126.34 133.47,-170.52 57,-44.17 124.44,-76.47 202.34,-96.89 77.89,-20.43 162.91,-30.4 256.01,-30.4 104.97,0 194.74,9.97 270.27,29.92 75.05,19.96 138.21,50.35 188.56,91.2 50.83,40.84 90.72,92.15 119.7,153.42 29.45,61.75 51.3,133.94 65.07,216.59l-326.31 54.15c-16.62,-84.55 -50.83,-147.72 -102.6,-190.47 -51.3,-42.75 -124.92,-64.13 -220.39,-64.13 -59.37,0 -108.77,6.18 -148.19,19 -39.43,12.35 -70.77,29.45 -94.05,50.83 -23.28,21.38 -39.9,46.54 -49.4,74.57 -9.97,28.5 -14.73,58.42 -14.73,90.25 0,48.45 9.49,88.35 28.49,119.22 19,31.35 45.61,57.48 79.8,78.37 34.2,20.91 75.05,38 122.07,51.78 47.5,13.3 100.23,28.02 158.17,44.65 49.87,14.25 99.27,28.02 148.19,42.27 48.93,13.78 96.42,30.4 141.55,49.88 45.13,19.47 87.4,42.75 126.34,70.77 38.95,27.55 73.15,61.74 101.18,101.64 28.49,40.37 50.82,88.35 67.44,143.92 16.15,55.58 24.23,121.12 24.23,196.65zm247.47 564.75l0 -1960.73 339.14 0 0 1960.73 -339.14 0zm1413.08 -293.54c48.92,0 96.42,-4.75 141.07,-13.77 45.13,-9.5 86.45,-21.85 124.45,-37.05 38,-15.67 72.67,-33.26 103.54,-53.2 31.35,-19.95 56.53,-40.84 76,-62.22l0 -272.65 -393.28 0 0 -302.09 701.08 0 0 721.5c-36.1,45.6 -80.28,88.82 -132.05,130.14 -51.77,41.32 -110.19,77.9 -174.79,108.77 -65.07,31.35 -135.37,56.05 -211.84,74.58 -76.48,18.52 -157.22,28.02 -242.71,28.02 -141.55,0 -264.09,-25.18 -366.69,-76.01 -103.07,-50.35 -187.61,-121.11 -254.12,-211.83 -66.02,-90.72 -114.94,-198.07 -146.29,-322.51 -31.83,-124.45 -47.5,-260.77 -47.5,-408.48 0,-152.47 16.63,-290.7 49.88,-413.72 33.73,-123.49 84.07,-228.47 152.47,-314.91 67.92,-86.45 153.42,-153.42 256.49,-199.97 103.06,-47.02 223.72,-70.3 362.88,-70.3 101.18,0 190.95,11.87 269.32,36.1 78.84,24.22 147.72,58.42 207.09,102.59 59.37,44.65 108.77,98.32 148.67,160.55 39.9,62.7 71.24,132.51 94.52,210.42l-309.21 113.99c-13.78,-40.85 -32.3,-79.32 -55.1,-115.9 -22.8,-36.57 -50.83,-68.87 -84.55,-95.94 -34.19,-27.55 -73.14,-49.4 -117.79,-65.54 -44.18,-16.15 -95.47,-24.23 -152.95,-24.23 -83.59,0 -155.32,16.15 -216.12,47.98 -60.79,31.82 -111.14,77.41 -150.09,136.79 -39.43,59.37 -68.88,130.63 -87.88,213.74 -19,82.66 -28.5,175.74 -28.5,278.35 0,102.12 9.5,196.16 28.5,281.66 19,85.5 48.92,158.64 88.83,219.92 40.37,61.27 91.19,109.24 151.99,143.44 60.32,34.68 132.04,51.78 214.69,51.78zm1055.41 293.54l0 -1960.73 1262.5 0 0 316.33 -926.21 0 0 495.88 857.81 0 0 316.33 -857.81 0 0 515.84 971.81 0 0 316.33 -1308.1 0zm2309.37 -293.54c63.18,0 117.8,-10.92 164.34,-32.77 46.55,-21.85 86.45,-50.36 120.17,-85.5 34.19,-35.62 62.22,-75.53 84.54,-120.17 21.85,-44.17 40.37,-89.29 55.58,-134.89l292.11 134.89c-23.27,70.77 -53.67,139.64 -91.67,207.57 -38,67.45 -85.98,127.29 -142.98,179.07 -57,51.78 -124.92,94.05 -203.77,125.86 -78.84,31.83 -171.46,47.98 -278.34,47.98 -139.17,0 -259.34,-25.18 -360.98,-76.01 -101.65,-50.35 -186.2,-121.11 -253.17,-211.37 -66.97,-90.24 -116.37,-197.59 -148.67,-322.04 -31.83,-124.45 -47.98,-260.3 -47.98,-408.02 0,-152.94 16.15,-291.16 47.98,-414.65 32.3,-123.02 81.22,-228.47 146.76,-314.92 65.55,-86.92 148.68,-153.42 248.89,-200.44 100.23,-47.02 218.01,-70.3 353.38,-70.3 104.98,0 196.65,13.3 275.49,40.37 78.85,26.6 146.77,64.59 203.77,113.05 57,48.92 104.5,106.4 142.02,172.42 37.53,66.5 66.98,139.17 88.35,218.96l-296.39 99.28c-9.97,-41.8 -26.6,-82.18 -48.92,-120.65 -21.85,-38.47 -49.87,-72.67 -84.07,-102.59 -33.73,-29.45 -73.62,-53.67 -118.75,-71.72 -45.6,-18.05 -96.89,-27.08 -154.37,-27.08 -81.7,0 -151.99,16.15 -210.42,47.98 -58.42,32.3 -106.4,77.89 -143.92,137.27 -37.53,59.37 -65.55,130.62 -83.6,213.74 -18.05,83.12 -27.08,176.22 -27.08,279.29 0,102.12 9.03,196.17 27.08,280.72 18.05,85.02 46.07,158.16 84.07,219.44 38,61.27 86.93,109.24 146.29,143.44 59.37,34.68 130.63,51.78 214.22,51.78zm1970.23 293.54l0 -840.72 -698.22 0 0 840.72 -336.29 0 0 -1960.73 336.29 0 0 780.87 698.22 0 0 -780.87 336.28 0 0 1960.73 -336.28 0z"/>
    <path class="fil1" d="M-0 10046.55l28.58 0c0.31,20.17 5.57,36.21 15.81,48.19 10.29,11.92 23.98,17.91 41.12,17.91 16.92,0 30.31,-4.5 40.04,-13.59 9.78,-9.09 14.65,-21.46 14.65,-37.05 0,-21.27 -18.35,-37.5 -55,-48.58 -2.18,-0.65 -3.85,-1.1 -5.02,-1.48 -29.71,-8.96 -49.32,-18.95 -58.85,-29.9 -9.58,-11.01 -14.35,-26.68 -14.35,-46.9 0,-24.81 7.15,-44.72 21.4,-59.72 14.25,-15.02 33.21,-22.55 56.88,-22.55 24.13,0 43.14,7.86 56.98,23.64 13.9,15.72 20.89,37.37 21.1,64.88l-28.29 0.19c-1.01,-18.49 -5.98,-32.73 -14.96,-42.58 -8.97,-9.86 -21.24,-14.83 -36.8,-14.83 -14.55,0 -26.21,4.06 -34.93,12.12 -8.72,8.12 -13.08,18.87 -13.08,32.28 0,21.46 18.05,37.5 54.15,48 5.31,1.67 9.42,2.9 12.31,3.79l3.14 0.91c23.52,7.22 39.14,14.95 46.89,23.25 5.83,6.32 10.29,13.99 13.33,22.94 3.09,9.02 4.61,19.07 4.61,30.15 0,26.87 -7.56,48.19 -22.66,64.05 -15.05,15.91 -35.48,23.84 -61.24,23.84 -26.51,0 -47.19,-8.51 -61.99,-25.58 -14.81,-17.08 -22.71,-41.56 -23.82,-73.39zm207.13 91.62l0 -277.95 29.81 0 0 277.95 -29.81 0zm67.48 -91.62l28.58 0c0.3,20.17 5.57,36.21 15.81,48.19 10.29,11.92 23.98,17.91 41.11,17.91 16.93,0 30.32,-4.5 40.05,-13.59 9.78,-9.09 14.65,-21.46 14.65,-37.05 0,-21.27 -18.35,-37.5 -55,-48.58 -2.18,-0.65 -3.85,-1.1 -5.02,-1.48 -29.71,-8.96 -49.32,-18.95 -58.85,-29.9 -9.58,-11.01 -14.35,-26.68 -14.35,-46.9 0,-24.81 7.15,-44.72 21.4,-59.72 14.25,-15.02 33.21,-22.55 56.88,-22.55 24.13,0 43.14,7.86 56.98,23.64 13.9,15.72 20.89,37.37 21.1,64.88l-28.29 0.19c-1.01,-18.49 -5.98,-32.73 -14.96,-42.58 -8.97,-9.86 -21.24,-14.83 -36.8,-14.83 -14.55,0 -26.22,4.06 -34.93,12.12 -8.72,8.12 -13.08,18.87 -13.08,32.28 0,21.46 18.05,37.5 54.15,48 5.31,1.67 9.42,2.9 12.31,3.79l3.14 0.91c23.52,7.22 39.14,14.95 46.89,23.25 5.83,6.32 10.29,13.99 13.33,22.94 3.09,9.02 4.61,19.07 4.61,30.15 0,26.87 -7.56,48.19 -22.66,64.05 -15.05,15.91 -35.48,23.84 -61.24,23.84 -26.51,0 -47.19,-8.51 -61.99,-25.58 -14.81,-17.08 -22.71,-41.56 -23.82,-73.39zm254.88 91.62l0 -244.32 -69.05 0 0 -33.63 167.9 0 0 33.63 -69.04 0 0 244.32 -29.81 0zm125.27 0l0 -277.95 155.93 0 0 34.4 -126.43 0 0 83.11 116.8 0 0 32.47 -116.8 0 0 93.17 128.97 0 0 34.79 -158.46 0zm221.78 -236.84l0 236.84 -27.37 0 0 -277.95 42.52 0 54.24 212.68c1.58,5.99 2.75,10.69 3.5,14.04 0.71,3.35 1.27,6.25 1.68,8.77 0.81,-4.64 1.57,-8.83 2.38,-12.43 0.76,-3.67 1.62,-7.16 2.53,-10.37l56.08 -212.68 42.68 0 0 277.95 -28.9 0 0 -236.84c-0.7,4.06 -1.47,8.12 -2.38,12.18 -0.86,4.12 -1.82,8.18 -2.79,12.17l-56.27 212.49 -27.98 0 -55.01 -212.49c-1.01,-3.47 -1.87,-7.28 -2.69,-11.27 -0.81,-4.06 -1.52,-8.38 -2.23,-13.08zm264.01 121.25l68.19 0 -33.86 -122.54 -34.32 122.54zm-63.27 115.59l81.27 -277.95 32.8 0 81.51 277.95 -32.24 0 -23.16 -83.11 -86.08 0 -23.32 83.11 -30.77 0zm382.34 -245.87l-51.05 0 0 211.85 51.05 0c21.9,0 38.44,-9.03 49.58,-27.07 11.21,-18.04 16.78,-44.78 16.78,-80.09 0,-33.82 -5.67,-59.72 -17.08,-77.7 -11.36,-17.97 -27.78,-27 -49.28,-27zm-80.85 245.87l0 -277.95 83.39 0c30.46,0 53.78,11.59 69.95,34.72 16.17,23.13 24.29,56.51 24.29,100.19 0,45.17 -8.37,80.28 -25.15,105.41 -16.77,25.07 -40.2,37.63 -70.27,37.63l-82.22 0zm215.04 0l0 -277.95 155.93 0 0 34.4 -126.42 0 0 83.11 116.8 0 0 32.47 -116.8 0 0 93.17 128.97 0 0 34.79 -158.47 0zm441.49 -37.24c-8.92,15.02 -19.51,26.22 -31.78,33.76 -12.27,7.47 -26.21,11.2 -41.88,11.2 -29.59,0 -53.57,-13.46 -71.98,-40.32 -18.35,-26.88 -27.53,-62.12 -27.53,-105.8 0,-45.43 9.48,-81.31 28.49,-107.53 19.01,-26.23 44.82,-39.37 77.41,-39.37 24.94,0 45.27,8.06 61.03,24.1 15.71,16.03 25.2,38.4 28.33,67.13l-28.89 0c-2.69,-18.75 -9.27,-33.25 -19.83,-43.43 -10.53,-10.24 -24.13,-15.34 -40.64,-15.34 -23.88,0 -42.39,9.86 -55.52,29.58 -13.13,19.65 -19.67,47.41 -19.67,83.3 0,35.5 6.49,63.27 19.47,83.24 12.98,20.04 30.82,30.02 53.63,30.02 20.59,0 37.01,-7.99 49.33,-23.96 12.27,-15.91 18.4,-37.44 18.4,-64.44l0 -3.6 -68.49 0 0 -31.32 95.86 0 0 150 -19.37 0 -6.39 -37.24zm68.7 37.24l0 -277.95 155.93 0 0 34.4 -126.43 0 0 83.11 116.8 0 0 32.47 -116.8 0 0 93.17 128.97 0 0 34.79 -158.46 0zm184.37 -91.62l28.58 0c0.31,20.17 5.58,36.21 15.82,48.19 10.28,11.92 23.97,17.91 41.11,17.91 16.92,0 30.31,-4.5 40.04,-13.59 9.78,-9.09 14.65,-21.46 14.65,-37.05 0,-21.27 -18.35,-37.5 -55,-48.58 -2.18,-0.65 -3.84,-1.1 -5.02,-1.48 -29.7,-8.96 -49.32,-18.95 -58.84,-29.9 -9.58,-11.01 -14.36,-26.68 -14.36,-46.9 0,-24.81 7.15,-44.72 21.4,-59.72 14.25,-15.02 33.21,-22.55 56.89,-22.55 24.12,0 43.13,7.86 56.97,23.64 13.9,15.72 20.89,37.37 21.1,64.88l-28.28 0.19c-1.02,-18.49 -5.99,-32.73 -14.96,-42.58 -8.98,-9.86 -21.25,-14.83 -36.81,-14.83 -14.55,0 -26.21,4.06 -34.93,12.12 -8.72,8.12 -13.08,18.87 -13.08,32.28 0,21.46 18.05,37.5 54.15,48 5.32,1.67 9.42,2.9 12.32,3.79l3.13 0.91c23.52,7.22 39.14,14.95 46.9,23.25 5.82,6.32 10.28,13.99 13.33,22.94 3.08,9.02 4.61,19.07 4.61,30.15 0,26.87 -7.56,48.19 -22.66,64.05 -15.06,15.91 -35.48,23.84 -61.24,23.84 -26.52,0 -47.19,-8.51 -62,-25.58 -14.81,-17.08 -22.7,-41.56 -23.82,-73.39zm254.88 91.62l0 -244.32 -69.05 0 0 -33.63 167.9 0 0 33.63 -69.04 0 0 244.32 -29.81 0zm164.2 -115.59l68.18 0 -33.86 -122.54 -34.31 122.54zm-63.27 115.59l81.26 -277.95 32.8 0 81.52 277.95 -32.24 0 -23.17 -83.11 -86.07 0 -23.32 83.11 -30.77 0zm141.43 -354.49c-1.98,12.69 -5.42,22.35 -10.39,29.05 -4.96,6.64 -11.25,9.99 -18.86,9.99 -1.27,0 -2.74,-0.13 -4.36,-0.46 -1.67,-0.32 -3.38,-0.83 -5.27,-1.41l-14.4 -5.16c-1.26,-0.45 -2.53,-0.84 -3.8,-1.09 -1.21,-0.26 -2.38,-0.39 -3.49,-0.39 -2.94,0 -5.57,1.1 -7.85,3.34 -2.29,2.2 -4.11,5.48 -5.48,9.79l-13.08 0c1.78,-12.37 5.17,-21.9 10.08,-28.6 4.97,-6.7 11.16,-10.05 18.56,-10.05 1.67,0 3.29,0.13 4.76,0.39 1.47,0.26 2.84,0.64 4.01,1.1l14.7 5.54c1.47,0.45 2.84,0.84 4.15,1.09 1.27,0.26 2.54,0.39 3.7,0.39 3.34,0 6.19,-1.16 8.47,-3.41 2.29,-2.26 4.1,-5.6 5.47,-10.11l13.08 0zm98 215.71c0,35.63 6.44,63.47 19.36,83.56 12.93,20.04 30.82,30.09 53.68,30.09 22.82,0 40.61,-10.05 53.43,-30.09 12.83,-20.1 19.21,-47.93 19.21,-83.56 0,-35.76 -6.38,-63.66 -19.21,-83.62 -12.82,-20.05 -30.61,-30.03 -53.43,-30.03 -22.86,0 -40.75,9.98 -53.68,30.03 -12.92,19.97 -19.36,47.86 -19.36,83.62zm-30.73 0c0,-45.94 9.18,-81.83 27.53,-107.72 18.41,-25.84 43.81,-38.79 76.25,-38.79 32.4,0 57.7,12.89 76,38.72 18.25,25.78 27.38,61.73 27.38,107.79 0,45.95 -9.13,81.83 -27.38,107.72 -18.3,25.84 -43.6,38.79 -76,38.79 -32.44,0 -57.84,-12.95 -76.25,-38.79 -18.35,-25.9 -27.53,-61.78 -27.53,-107.72zm408.75 -107.09l-51.06 0 0 211.85 51.06 0c21.89,0 38.43,-9.03 49.57,-27.07 11.21,-18.04 16.78,-44.78 16.78,-80.09 0,-33.82 -5.67,-59.72 -17.08,-77.7 -11.35,-17.97 -27.78,-27 -49.27,-27zm-80.86 245.87l0 -277.95 83.39 0c30.46,0 53.78,11.59 69.95,34.72 16.17,23.13 24.29,56.51 24.29,100.19 0,45.17 -8.37,80.28 -25.14,105.41 -16.78,25.07 -40.2,37.63 -70.27,37.63l-82.23 0zm215.05 0l0 -277.95 155.93 0 0 34.4 -126.43 0 0 83.11 116.8 0 0 32.47 -116.8 0 0 93.17 128.97 0 0 34.79 -158.46 0zm430.74 -103.22l28.9 0c-1.28,33.83 -10.39,60.76 -27.28,80.87 -16.88,20.04 -38.68,30.08 -65.39,30.08 -30.83,0 -54.96,-13.33 -72.44,-40 -17.49,-26.68 -26.22,-63.66 -26.22,-110.82 0,-43.56 9.18,-78.15 27.49,-103.8 18.3,-25.58 43.03,-38.4 74.11,-38.4 24.74,0 45.02,8.12 60.78,24.35 15.81,16.24 24.94,38.41 27.43,66.49l-29.19 0c-2.8,-18.36 -9.38,-32.54 -19.73,-42.39 -10.39,-9.85 -23.93,-14.82 -40.55,-14.82 -22.15,0 -39.34,9.85 -51.56,29.63 -12.22,19.78 -18.35,47.61 -18.35,83.63 0,33.95 6.34,61.21 19.06,81.7 12.73,20.56 29.61,30.8 50.59,30.8 17.9,0 32.61,-7.09 44.01,-21.21 11.46,-14.17 17.54,-32.86 18.35,-56.12zm93.03 -142.26l0 94.33 50.75 0c18.35,0 31.27,-3.8 38.89,-11.34 7.55,-7.54 11.35,-20.17 11.35,-37.82 0,-16.49 -3.55,-28.15 -10.7,-34.98 -7.15,-6.77 -20.33,-10.18 -39.54,-10.18l-50.75 0zm-29.19 -32.47l84.86 0c13.74,0 23.87,0.77 30.35,2.25 6.49,1.55 12.33,4.06 17.44,7.55 9.23,6.44 16.22,15.39 21.05,26.8 4.81,11.47 7.2,24.94 7.2,40.4 0,14.95 -2.54,27.76 -7.56,38.4 -5.07,10.63 -12.57,18.94 -22.55,25 8.52,3.03 14.55,8.12 18.19,15.27 3.6,7.16 5.84,19.33 6.75,36.4l2.53 45.88c0.46,9.79 1.48,17.14 3.06,21.97 1.52,4.83 3.79,8.32 6.89,10.31l0 7.73 -34.32 0c-2.79,-5.8 -4.71,-18.17 -5.83,-37.18l0 -1.09 -1.82 -36.28c-0.97,-18.62 -4.11,-30.67 -9.33,-36.21 -5.27,-5.54 -18.35,-8.31 -39.34,-8.31l-48.06 0 0 119.07 -29.49 0 0 -277.95zm201.96 277.95l0 -277.95 155.93 0 0 34.4 -126.42 0 0 83.11 116.8 0 0 32.47 -116.8 0 0 93.17 128.96 0 0 34.79 -158.46 0zm275.26 -245.87l-51.05 0 0 211.85 51.05 0c21.9,0 38.43,-9.03 49.58,-27.07 11.21,-18.04 16.78,-44.78 16.78,-80.09 0,-33.82 -5.68,-59.72 -17.08,-77.7 -11.36,-17.97 -27.78,-27 -49.28,-27zm-80.85 245.87l0 -277.95 83.39 0c30.46,0 53.78,11.59 69.95,34.72 16.17,23.13 24.29,56.51 24.29,100.19 0,45.17 -8.37,80.28 -25.15,105.41 -16.77,25.07 -40.2,37.63 -70.27,37.63l-82.22 0zm215.04 0l0 -277.95 155.93 0 0 34.4 -126.42 0 0 83.11 116.8 0 0 32.47 -116.8 0 0 93.17 128.97 0 0 34.79 -158.47 0zm194.1 0l0 -277.95 32.55 0 102.3 201.92c2.29,4.38 4.25,8.51 5.93,12.43 1.67,3.87 2.99,7.54 4,10.95l0 -225.3 28.28 0 0 277.95 -32.24 0 -104.38 -204.76c-1.57,-3.09 -3.04,-6.38 -4.36,-9.79 -1.37,-3.41 -2.64,-6.96 -3.79,-10.76l0 225.31 -28.29 0zm372.64 -103.22l28.9 0c-1.27,33.83 -10.39,60.76 -27.28,80.87 -16.87,20.04 -38.68,30.08 -65.39,30.08 -30.82,0 -54.95,-13.33 -72.44,-40 -17.49,-26.68 -26.21,-63.66 -26.21,-110.82 0,-43.56 9.18,-78.15 27.48,-103.8 18.3,-25.58 43.04,-38.4 74.11,-38.4 24.74,0 45.03,8.12 60.79,24.35 15.81,16.24 24.94,38.41 27.42,66.49l-29.19 0c-2.79,-18.36 -9.38,-32.54 -19.73,-42.39 -10.39,-9.85 -23.92,-14.82 -40.54,-14.82 -22.16,0 -39.35,9.85 -51.57,29.63 -12.21,19.78 -18.35,47.61 -18.35,83.63 0,33.95 6.34,61.21 19.07,81.7 12.72,20.56 29.6,30.8 50.59,30.8 17.89,0 32.6,-7.09 44.01,-21.21 11.45,-14.17 17.53,-32.86 18.34,-56.12zm64.45 103.22l0 -277.95 29.81 0 0 277.95 -29.81 0zm116.44 -115.59l68.19 0 -33.86 -122.54 -34.32 122.54zm-63.27 115.59l81.27 -277.95 32.8 0 81.51 277.95 -32.24 0 -23.16 -83.11 -86.08 0 -23.32 83.11 -30.77 0zm245.51 -236.84l0 236.84 -27.37 0 0 -277.95 42.53 0 54.23 212.68c1.58,5.99 2.75,10.69 3.5,14.04 0.71,3.35 1.27,6.25 1.68,8.77 0.81,-4.64 1.57,-8.83 2.38,-12.43 0.77,-3.67 1.62,-7.16 2.54,-10.37l56.07 -212.68 42.68 0 0 277.95 -28.89 0 0 -236.84c-0.71,4.06 -1.47,8.12 -2.39,12.18 -0.86,4.12 -1.82,8.18 -2.79,12.17l-56.27 212.49 -27.98 0 -55 -212.49c-1.02,-3.47 -1.88,-7.28 -2.69,-11.27 -0.82,-4.06 -1.52,-8.38 -2.24,-13.08zm225.08 236.84l0 -277.95 155.93 0 0 34.4 -126.42 0 0 83.11 116.8 0 0 32.47 -116.8 0 0 93.17 128.96 0 0 34.79 -158.46 0zm194.1 0l0 -277.95 32.55 0 102.29 201.92c2.29,4.38 4.26,8.51 5.93,12.43 1.68,3.87 3,7.54 4.01,10.95l0 -225.3 28.28 0 0 277.95 -32.24 0 -104.38 -204.76c-1.57,-3.09 -3.05,-6.38 -4.36,-9.79 -1.37,-3.41 -2.64,-6.96 -3.8,-10.76l0 225.31 -28.28 0zm268.01 0l0 -244.32 -69.05 0 0 -33.63 167.9 0 0 33.63 -69.04 0 0 244.32 -29.81 0zm146.55 -138.78c0,35.63 6.45,63.47 19.37,83.56 12.93,20.04 30.82,30.09 53.68,30.09 22.82,0 40.61,-10.05 53.43,-30.09 12.83,-20.1 19.21,-47.93 19.21,-83.56 0,-35.76 -6.38,-63.66 -19.21,-83.62 -12.82,-20.05 -30.61,-30.03 -53.43,-30.03 -22.86,0 -40.75,9.98 -53.68,30.03 -12.92,19.97 -19.37,47.86 -19.37,83.62zm-30.72 0c0,-45.94 9.18,-81.83 27.53,-107.72 18.41,-25.84 43.8,-38.79 76.25,-38.79 32.4,0 57.7,12.89 76,38.72 18.25,25.78 27.38,61.73 27.38,107.79 0,45.95 -9.13,81.83 -27.38,107.72 -18.3,25.84 -43.6,38.79 -76,38.79 -32.45,0 -57.84,-12.95 -76.25,-38.79 -18.35,-25.9 -27.53,-61.78 -27.53,-107.72zm327.9 138.78l0 -277.95 155.93 0 0 34.4 -126.42 0 0 83.11 116.8 0 0 32.47 -116.8 0 0 93.17 128.96 0 0 34.79 -158.46 0zm277.76 0l0 -277.95 29.8 0 0 114.03 113.46 0 0 -114.03 29.81 0 0 277.95 -29.81 0 0 -130.28 -113.46 0 0 130.28 -29.8 0zm258.89 -115.59l68.19 0 -33.86 -122.54 -34.32 122.54zm-63.27 115.59l81.27 -277.95 32.8 0 81.51 277.95 -32.24 0 -23.16 -83.11 -86.08 0 -23.32 83.11 -30.77 0zm218.14 0l0 -277.95 88.26 0c22.7,0 39.69,5.67 51.05,16.94 11.35,11.34 17.03,28.28 17.03,50.77 0,14.44 -2.64,26.74 -7.92,36.86 -5.26,10.11 -13.08,17.91 -23.51,23.32 13.18,3.09 23.41,10.56 30.77,22.35 7.35,11.79 11,26.68 11,44.65 0,25.39 -6.65,45.63 -19.93,60.57 -13.23,15.01 -31.27,22.48 -54.04,22.48l-92.71 0zm29.8 -161.21l52.07 0c15.35,0 26.62,-3.54 33.8,-10.56 7.26,-7.02 10.85,-18.04 10.85,-32.99 0,-14.12 -3.44,-24.55 -10.39,-31.32 -6.89,-6.76 -17.53,-10.17 -31.89,-10.17l-54.44 0 0 85.04zm0 127.57l60.22 0c15.17,0 26.67,-4.25 34.47,-12.76 7.86,-8.5 11.76,-20.87 11.76,-37.04 0,-16.11 -4,-27.96 -11.97,-35.5 -7.96,-7.54 -20.53,-11.34 -37.66,-11.34l-56.83 0 0 96.64zm172.21 33.64l0 -277.95 29.81 0 0 277.95 -29.81 0zm77.51 0l0 -277.95 30.11 0 0 242.76 108.89 0 0 35.18 -139 0zm163.38 0l0 -277.95 29.81 0 0 277.95 -29.81 0zm125.87 0l0 -244.32 -69.05 0 0 -33.63 167.9 0 0 33.63 -69.04 0 0 244.32 -29.81 0zm153.35 -115.59l68.18 0 -33.86 -122.54 -34.31 122.54zm-63.27 115.59l81.26 -277.95 32.8 0 81.52 277.95 -32.24 0 -23.16 -83.11 -86.08 0 -23.32 83.11 -30.77 0zm371.13 -103.22l28.9 0c-0.91,31.45 -9.33,57.22 -25.25,77.38 -15.92,20.11 -36.9,31.32 -62.96,33.57l0 13.15 3.99 0c10.09,0 17.85,2.58 23.37,7.73 5.47,5.22 8.22,12.5 8.22,21.97 0,11.21 -2.94,19.59 -8.83,25.06 -5.93,5.48 -14.7,8.25 -26.41,8.25 -5.12,0 -10.84,-0.58 -17.08,-1.8 -6.24,-1.16 -12.73,-2.97 -19.47,-5.41l-0.31 -17.53c7.76,2.26 14.81,3.99 21.25,5.16 6.44,1.22 11.51,1.8 15.17,1.8 5.06,0 8.92,-1.22 11.6,-3.6 2.7,-2.39 4,-5.86 4,-10.44 0,-5.02 -1.47,-8.76 -4.36,-11.27 -2.94,-2.45 -7.4,-3.67 -13.33,-3.67 -1.78,0 -3.29,0 -4.61,0.07 -1.27,0.06 -2.59,0.13 -3.85,0.13l0 -29.58c-29.09,-2.38 -51.76,-16.81 -68.03,-43.23 -16.27,-26.42 -24.44,-62.3 -24.44,-107.59 0,-43.3 9.18,-77.83 27.53,-103.6 18.41,-25.71 43.14,-38.6 74.38,-38.6 24.73,0 45.01,8.25 60.88,24.68 15.81,16.42 24.84,38.46 27.02,66.16l-29.19 0c-2.69,-18.36 -9.18,-32.54 -19.53,-42.39 -10.33,-9.85 -23.82,-14.82 -40.45,-14.82 -22.25,0 -39.54,9.85 -51.81,29.63 -12.27,19.78 -18.4,47.61 -18.4,83.63 0,33.95 6.39,61.21 19.17,81.7 12.77,20.56 29.7,30.8 50.79,30.8 17.9,0 32.6,-7.09 44.01,-21.33 11.45,-14.18 17.44,-32.87 18.04,-56zm102.76 -12.37l68.19 0 -33.86 -122.54 -34.32 122.54zm-63.27 115.59l81.27 -277.95 32.8 0 81.51 277.95 -32.24 0 -23.16 -83.11 -86.08 0 -23.32 83.11 -30.77 0zm141.44 -354.49c-1.99,12.69 -5.42,22.35 -10.39,29.05 -4.97,6.64 -11.26,9.99 -18.86,9.99 -1.27,0 -2.74,-0.13 -4.36,-0.46 -1.68,-0.32 -3.39,-0.83 -5.27,-1.41l-14.4 -5.16c-1.27,-0.45 -2.54,-0.84 -3.8,-1.09 -1.21,-0.26 -2.39,-0.39 -3.49,-0.39 -2.94,0 -5.58,1.1 -7.86,3.34 -2.29,2.2 -4.11,5.48 -5.47,9.79l-13.08 0c1.77,-12.37 5.16,-21.9 10.08,-28.6 4.97,-6.7 11.15,-10.05 18.55,-10.05 1.68,0 3.3,0.13 4.77,0.39 1.47,0.26 2.84,0.64 4,1.1l14.7 5.54c1.47,0.45 2.84,0.84 4.15,1.09 1.28,0.26 2.55,0.39 3.7,0.39 3.34,0 6.19,-1.16 8.47,-3.41 2.29,-2.26 4.11,-5.6 5.48,-10.11l13.08 0zm97.99 215.71c0,35.63 6.44,63.47 19.36,83.56 12.94,20.04 30.83,30.09 53.68,30.09 22.82,0 40.61,-10.05 53.43,-30.09 12.83,-20.1 19.22,-47.93 19.22,-83.56 0,-35.76 -6.39,-63.66 -19.22,-83.62 -12.82,-20.05 -30.61,-30.03 -53.43,-30.03 -22.85,0 -40.74,9.98 -53.68,30.03 -12.92,19.97 -19.36,47.86 -19.36,83.62zm-30.72 0c0,-45.94 9.18,-81.83 27.53,-107.72 18.4,-25.84 43.8,-38.79 76.24,-38.79 32.4,0 57.71,12.89 76,38.72 18.26,25.78 27.38,61.73 27.38,107.79 0,45.95 -9.12,81.83 -27.38,107.72 -18.29,25.84 -43.6,38.79 -76,38.79 -32.44,0 -57.84,-12.95 -76.24,-38.79 -18.35,-25.9 -27.53,-61.78 -27.53,-107.72z"/>
   </g>
   <g>
    <path class="fil2" d="M3945.41 5618.04c-1046.77,-211.31 -1724.01,-1231.33 -1512.74,-2278.19 69.19,-342.64 225.04,-645.69 440.09,-890.95l-530.23 -888.83c-3.82,78.33 -34.6,155.06 -91.48,215.23 -39.9,42.49 -78.31,85.94 -115.21,130.77 -80.69,97.82 -207.48,139.29 -327.87,114.85 -29.33,-5.77 -57.82,-15.9 -85.52,-29.25 -169.19,-84.68 -374.75,-15.66 -459.38,153.54l-43.03 87.88c-84.69,169.29 -15.57,374.88 153.65,459.42l1.75 0.27c140.72,70.28 217.01,227.56 181.55,381.55 -6.63,28.3 -13.15,56.56 -18.98,84.92 -5.7,28.6 -10.78,58 -15.75,86.58 -25.97,154.89 -158.3,270.94 -315.32,281.08l-0.82 -0.12c-188.59,11.52 -331.95,174.05 -320.48,362.73l5.74 97c10.68,157.99 126.09,284.85 274.19,314.77 29.27,5.84 58.52,7.56 89.3,5.88 157.88,-9.93 302.63,88.09 347.92,239.12 17.5,55.71 35.99,110.81 56.31,165.46 54.59,147.65 -0.77,314.07 -132.48,401.67l-0.99 0.58c-157.88,104.86 -200.79,317.31 -95.77,474.37l53.89 82.23c52.11,78.44 131.6,128.48 217.81,145.95 85.3,17.15 178.1,1.91 257.5,-50.82 131.74,-87.47 306.76,-74.67 421.55,33.76 42.47,39.93 86.03,78.24 130.7,115.97 121.67,100.36 155.79,271.8 85.56,412.55l-0.22 0.92c-83.77,169.28 -14.7,374.95 154.76,458.69l87.73 43.91c169.44,83.79 374.91,14.78 458.73,-154.7l0.14 -0.82c70.41,-141.67 228.57,-217.72 381.47,-181.6 28.24,6.59 56.57,13.17 84.98,18.93 29.24,5.9 57.9,10.86 86.54,15.72 155.76,26.26 271.18,157.4 281.08,315.33l-0.14 0.95c12.31,188.73 174.99,332.12 363.58,320.57l96.89 -5.69c188.81,-12.45 332.34,-174.93 319.9,-363.71l0.15 -0.92c-10.08,-157.01 88.73,-301.7 238.99,-347.09 55.78,-17.44 111.71,-35.68 166.34,-55.98 147.81,-55.47 313.27,0.54 400.85,131.43l0.52 1.74c104.98,157.12 317.51,200 474.54,95.07l81.42 -54.12c157.7,-104.04 200.55,-316.48 95.75,-474.28l0.15 -0.91c-87.59,-130.86 -74.12,-305.66 33.69,-420.68 39.89,-42.48 78.37,-86.91 116.14,-131.56 80.71,-97.78 208.33,-138.92 327.87,-114.84 29.28,5.92 57.78,15.97 85.52,29.47 169.47,83.86 374.86,14.69 458.5,-153.82l43.66 -86.91c84.07,-170.4 14.91,-375.79 -154.46,-459.55l-0.9 -0.2c-140.77,-70.22 -216.67,-228.4 -181.56,-381.42 7.56,-28.23 13.46,-57.38 19.18,-85.97 5.78,-28.36 11.49,-56.74 16.35,-85.48 2.71,-16.07 6.56,-31.71 11.41,-46.85l-933.12 0c-232.48,1019.29 -1237.19,1672.55 -2267.9,1464.42z"/>
    <g>
     <g>
      <polygon class="fil3" points="2545.73,4009.12 2912.14,3368.99 3278.54,2728.87 4016.08,2726.12 4753.63,2723.35 5124.8,3360.73 5495.98,3998.09 5129.57,4638.21 4763.18,5278.33 4025.63,5281.1 3288.08,5283.85 2916.91,4646.48 "/>
      <polygon class="fil4" points="4904.23,2635.66 5270.63,1995.54 5637.03,1355.41 6374.58,1352.66 7112.12,1349.9 7483.3,1987.26 7854.47,2624.63 7488.07,3264.75 7121.67,3904.88 6384.13,3907.63 5646.58,3910.39 5275.41,3273.03 "/>
      <polygon class="fil5" points="2544.75,1285.77 2911.16,645.64 3277.55,5.52 4015.1,2.76 4752.65,0 5123.82,637.37 5495,1274.73 5128.6,1914.86 4762.19,2554.98 4024.65,2557.73 3287.11,2560.5 2915.93,1923.13 "/>
      <path class="fil6" d="M4558.5 1906.37c9.92,0 30.37,2.08 37.4,-1.3 -0.11,4.72 -1.31,7.79 -2.61,11.59 -4.18,12.21 -13.48,27.14 -14.16,29.68l-3.87 0c-1.17,-4.38 -9.09,-15.91 -13.58,-28.98 -1.51,-4.4 -2.65,-6.82 -3.18,-10.99zm-1104.99 -1217.53l5.08 -67.43c0.07,-1 0.22,-1.97 0.42,-2.92 3.34,-23.21 12.18,-39.29 26.55,-50.06 14.06,-10.54 32.05,-14.72 54.34,-14.62l1.26 0.05 0 -0.05 787.29 51.41c20.99,1.64 38.34,8.59 50.76,21.02 12.33,12.32 19.14,29.12 19.14,50.44 0,0.94 -0.06,1.87 -0.18,2.77l-73.64 1144.18c-2.13,39.89 -10.15,60.93 -26.96,73.34 -17.03,12.59 -36.9,12.59 -65.9,12.59 -0.92,0 -1.83,-0.05 -2.73,-0.17l-126.93 -9.67c-1.46,-0.11 -2.88,-0.36 -4.22,-0.74l-101.16 101.16c-3.9,4.03 -9.37,6.54 -15.43,6.54l-602.11 0.01 0 -0.09c-39.71,0.19 -59.58,0.27 -74.29,-17.77 -13.03,-15.97 -13.03,-38.84 -13,-84.53l-0.09 0 -0.01 -1112.55 0.09 0c-0.32,-30.62 -0.26,-53.49 10.01,-71.72l0.07 0.04 0.02 -0.04c11.73,-20.82 32.45,-31.09 71.69,-31.09l0 -0.08 79.93 0zm683.89 1170.52l94.75 7.22c20.47,0 34.51,-0.04 39.91,-4.02 5.47,-4.05 8.35,-15.79 9.66,-41.15l0.04 -1.14 73.61 -1143.61c-0.01,-9.2 -2.34,-15.83 -6.55,-20.04 -4.91,-4.91 -13.06,-7.77 -23.73,-8.62l-786.62 -51.38c-12.41,0.05 -21.57,1.81 -27.23,6.04 -4.97,3.72 -8.23,10.66 -9.83,21.69 -1.41,21.47 -3.12,42.98 -4.81,64.46l367.44 0c11.87,0 21.49,9.62 21.49,21.49 0,11.86 -9.62,21.49 -21.49,21.49l-490.47 0 0 -0.08c-21.12,0 -30.9,3.05 -34.41,9.22l0.07 0.04c-4.94,8.77 -4.89,26.56 -4.64,50.57l0 0.17 0.08 0 0.01 1112.55 -0.09 0c-0.02,35.51 -0.02,53.27 3.43,57.51 1.77,2.18 14.85,2.12 40.97,1.99l0.08 0 0 -0.08 580.85 0 0.91 -136.33c-0.68,-29.33 3.21,-51.96 16.3,-68.37 13.97,-17.52 35.67,-25.78 69.42,-24.52l142.41 -0.92 0 -959.86c0,-0.87 0.05,-1.72 0.15,-2.56 0.72,-16.73 -2.47,-27.12 -8.66,-32.63 -6.75,-6.01 -18.45,-8.15 -33.55,-7.63l-0.67 0.01 0 0.08 -178.65 0c-11.86,0 -21.49,-9.62 -21.49,-21.49 0,-11.87 9.62,-21.49 21.49,-21.49l178.65 0 0 0.07c25.56,-0.78 47.09,4.44 62.75,18.39 15.9,14.16 24.33,35.67 22.94,66.8l0.01 981.56 -0.04 0c0.3,5.85 -1.79,11.8 -6.26,16.27l-88.26 88.27zm-134.45 73.68l156.46 -156.46c-38.07,0.28 -76.15,0.56 -114.21,0.7 -18.78,-0.71 -29.47,2.13 -34.46,8.4 -5.88,7.37 -7.53,21.28 -7.07,40.81l-0.71 106.55zm-487.69 -145.31c5.71,6.02 5.37,11.37 15.83,25.43l6.1 8.1c7.93,8.89 22.53,20.64 34.81,20.64 16.44,0 21.24,0.77 37.08,-9.34 7.83,-4.99 13.65,-12.61 18.37,-13.87 4.82,13.33 40.04,23.21 58.03,23.21l159.9 0c13.02,0 21.92,-12.83 21.92,-16.76 0,-12.51 1.39,-12.2 -2.94,-18.99 -8.97,-14.07 -27.58,-9.38 -53.8,-9.38 -25.04,0 -127.09,2.75 -143,-4 -0.02,-0.01 -2.33,-1.15 -2.59,-1.29 -16.84,-9.01 -15.35,-39.85 -29.8,-39.85l-12.89 0c-3.16,0 -8.55,3.68 -12.02,7.33 -6.99,7.36 -6.89,22.75 -18.27,32.02 -0.22,0.17 -0.5,0.41 -0.72,0.57 -15.59,11.15 -29.19,-14.54 -34.13,-23.77 -1.72,-3.21 -1.96,-3.26 -3.42,-6.89l-13.89 -50.59c-0.76,-5.66 -0.67,-3.73 -1.84,-8.49 -1.03,-4.19 -0.41,-5.17 -1.01,-9.29 -0.69,-4.7 -1.59,-3.52 -2.23,-8.11 -0.57,-4.13 0.28,-6.58 -0.78,-10.82 -2.29,-9.21 -3.97,-31.5 -30.93,-23.15l-9.48 6c-10.24,11.27 -5.19,40.39 -9.76,65.03l-3.02 18.92c-1.41,4.89 -0.94,2.32 -1.73,8.58 -1.07,8.46 -14.55,50.35 -17.4,57.4l-17.85 45.4c-2.27,7.33 -1.81,10.15 1.79,15.95 3.28,5.31 6.82,6.65 12.56,8.15 28.6,7.4 32.23,-22.22 43.37,-47.68l1.85 -4.6c0.11,-0.3 0.23,-0.65 0.34,-0.96l5.24 -15.38c0.1,-0.32 0.2,-0.67 0.3,-0.99 0.11,-0.31 0.21,-0.66 0.32,-0.97l5.68 -17.53zm-38.69 -667.98l572.56 0c9.34,0 20.96,-4.89 24.74,-12.66 6.88,-14.11 1.14,-33.76 -28.61,-33.76l-564.82 0c-13.12,0 -23.39,1.9 -28.23,13.04 -2.53,5.81 -3.11,12.44 -0.96,18.72l2.84 4.92c4.85,6.1 12.95,9.74 22.49,9.74zm0 296.6l572.56 -0.01c8.19,0 13.58,-1.04 18.33,-4.88 12.53,-10.12 11.36,-28.97 -3.14,-37.38 -2.26,-1.31 -5.72,-2.87 -8.74,-2.87l-586.74 0 -8.17 3.44c-0.25,0.13 -0.58,0.32 -0.82,0.47 -0.23,0.14 -0.55,0.36 -0.78,0.51 -6.7,4.6 -9.89,11.75 -8.93,20.7 0.85,7.92 3.35,11.29 8.11,15.14 4.75,3.83 10.14,4.88 18.32,4.88zm-10.31 -149.59l593.18 -0.01c7.59,0 25.69,-17.11 11.59,-36.08 -1.44,-1.94 -8.67,-7.76 -11.59,-7.76l-590.61 0c-8.03,0 -17.96,8.87 -18.8,21.06 -1.02,14.77 11.3,22.79 16.22,22.79zm86.4 -324.97c0,11.63 -0.59,23.36 17.2,27.93 4.44,1.13 6.1,1.73 11.16,1.73l363.65 0c30.67,0 36.08,-27.9 21.3,-40.63 -3.02,-2.61 -9.76,-5.79 -13.56,-5.79l-379.12 0c-9.86,0 -20.63,11.53 -20.63,16.76zm919.44 352.05c0,-8.94 5.57,-15.47 10.31,-15.47l211.49 0c4.71,0 10.31,8.92 10.31,14.18l0 259.2c0,4.32 0.21,0.73 -1.87,4.58 -5.8,10.78 -28.03,14.11 -27.85,-8.39l0.11 -212.87c0.09,-9.81 -1.26,-15.38 -8.05,-21.61 -7.74,-7.12 -11.91,-5.43 -25.53,-5.43l-152.22 0.07c-11.31,0.08 -16.7,-3.26 -16.7,-14.25zm54.16 -64.48c0,-46.8 -11.78,-38.68 91.55,-38.69 0.32,0 10.32,2.44 10.32,9.04l0 32.24 -91.56 0c-5.39,0 -10.31,3.92 -10.31,-2.59zm25.79 -116.05c0,-26.13 34.45,-35.8 46.81,-12 2.22,4.28 3.47,5.23 3.47,8.13l0 36.11 -50.29 0 0 -32.24zm-72.21 87.69l0 33.53c-12.56,0 -8.06,-0.61 -18.24,3.68 -7.1,3 -14.03,7.34 -18.98,13.26l-9.65 14.86c-10.04,22.71 -7.21,55.18 12.6,72.1 1.33,1.14 1.28,1.05 2.12,1.76 6.35,5.27 15.04,10.39 23.38,11.44 2.24,0.28 5.01,-0.21 6.86,0.88 4.23,2.51 1.92,46.55 1.92,53.53l0 220.51c-0.01,10.18 -0.43,17.15 3.68,23.4 5.93,9 19.97,12.66 30.31,8.02 1.65,-0.74 2.64,-1.29 4.04,-2.41 6.37,-5 8.39,-13.25 8.39,-22.56l0 -279.83c20.06,0 44.89,1.62 63.54,-0.94 6.56,-0.9 13.6,-0.34 20.28,-0.35 5.9,-0.01 18.06,-2.34 18.06,3.87l0 462.94c0,12.87 -15.13,31.13 -31.25,37.1 -9.37,3.46 -19.02,4.61 -27.8,2.62 -2.35,-0.53 -7.04,-0.87 -9.87,-1.74 -13.07,-3.97 -24.53,-14.85 -29.49,-27.25 -8.6,-21.47 4.08,-67.81 -12.28,-79.27 -7.7,-5.39 -19.13,-5.64 -27.02,-0.83 -5.58,3.41 -10.58,10.43 -10.58,17.79 0,33 -1.79,67.54 16.01,96.18 5.7,9.19 11.95,11.95 13.32,22.78l13.2 55.14c1.03,2.55 0.61,1.58 1.52,3.64l7.85 15.36c0.14,0.25 0.34,0.57 0.48,0.81 0.2,0.33 0.77,1.28 0.97,1.62 5.55,9.36 27.19,43.02 39.51,43.02l0.3 0c6.34,-0.06 12.86,-1.89 17.82,-5.09l9.28 -8.77c1.98,-2.1 2.3,-2.47 4.25,-4.77 1.67,-1.97 2.59,-2.96 4.1,-4.93 1.72,-2.24 1.97,-2.95 3.76,-5.26l2.36 -2.8c5.49,-6.83 12.08,-19.32 15.24,-27.33 0.92,-2.33 1.24,-3.13 2.58,-6.45l10.9 -35.51c3.88,-23.63 -1.63,-21.84 10.27,-34.86l4.72 -5.6c6.46,-9.17 11.99,-21.49 13.55,-32.88l2.74 -222.93c15.57,0 2.38,3.3 25.89,0.1 17.6,-2.4 29.7,-13.26 39.1,-26.68l2.93 -4.8c2.06,-4.25 5.59,-10.22 5.59,-15.05l0 -282.41c0,-5.1 -3.02,-10.49 -5.49,-15.15 -4.66,-8.81 -9.15,-13.41 -16.44,-19.66 -0.21,-0.18 -0.5,-0.42 -0.71,-0.59l-3.06 -2.11c-6.07,-3.88 -21.4,-10.21 -28.46,-10.21l-19.35 0 0 -32.24c0,-6.38 -6.08,-21.76 -9.39,-26.71 -6.14,-9.16 -8.75,-12.44 -17.68,-18.43 0,-12.79 1.25,-31.4 -0.55,-43.3 -2.31,-15.35 0.24,-21.23 -9.47,-35.65 -3.19,-4.74 -5.76,-8.03 -9.94,-11.98 -8.12,-7.67 -17.91,-12.93 -28.83,-16.3 -13.46,-4.18 -34.87,-2.59 -47.46,1.95 -7.32,2.64 -15.3,6.26 -20.79,11.45 -22.97,21.69 -23.51,39.89 -23.51,70.62 0.01,33.55 2.4,16.41 -12.71,35 -7.52,9.26 -14.37,22.69 -14.37,34.63z"/>
      <polygon class="fil7 str0" points="3791.15,3314.51 4250.57,3314.51 4250.57,3773.9 4709.96,3773.9 4709.96,4233.32 4250.57,4233.32 4250.57,4692.69 3791.14,4692.69 3791.14,4233.32 3331.78,4233.32 3331.78,3773.9 3791.14,3773.9 "/>
      <g>
       <g>
        <path class="fil7 str1" d="M6025.44 2005.52c80.23,0 145.26,65.03 145.26,145.25 0,80.23 -65.03,145.26 -145.26,145.26 -80.23,0 -145.26,-65.03 -145.26,-145.25 0,-80.23 65.03,-145.26 145.26,-145.26z"/>
       </g>
       <g>
        <path class="fil7 str2" d="M6583.83 2006.89c125.55,0 227.32,101.78 227.32,227.33 0,58.16 -8.22,130.26 -57.77,151.42 -52.12,22.24 -79.48,50.64 -96.92,77.42l-149.76 -1.12c-18.54,-30.84 -45.26,-62.62 -96.76,-81.32 -48.6,-17.64 -53.43,-90.63 -53.43,-146.41 0,-125.55 101.77,-227.33 227.32,-227.33zm0.25 540.69l-0.24 0.01 -0.5 -0.01 0.74 0z"/>
       </g>
       <g>
        <polyline class="fil7 str3" points="6170.71,2877.31 6397.65,2877.3 6462.16,2941.82 6646.11,2757.87 6709.76,2821.5 6835.31,2695.97 "/>
       </g>
       <g>
        <polygon class="fil7 str4" points="6962.59,2565.19 6920.75,2739.56 6792.58,2611.4 "/>
       </g>
       <g>
        <polyline class="fil7 str4" points="6772.53,2758.74 6772.54,3253.93 6101.23,3253.93 "/>
       </g>
       <g>
        <line class="fil7 str4" x1="6648.74" y1="3253.93" x2="6648.73" y2= "2769.2" />
       </g>
       <g>
        <line class="fil7 str5" x1="6523.19" y1="3253.93" x2="6523.19" y2= "2891.25" />
       </g>
       <g>
        <line class="fil7 str6" x1="6397.65" y1="3253.93" x2="6397.65" y2= "2891.26" />
       </g>
       <g>
        <line class="fil7 str7" x1="6272.17" y1="3253.93" x2="6272.16" y2= "2891.26" />
       </g>
       <g>
        <path class="fil7 str4" d="M6347.04 2291.98c-124.26,0 -231.62,0 -355.87,0 -111.94,5.24 -190.11,41.29 -195.07,144.19 0,35.46 0,70.91 0,106.37 0,87.37 34.43,109.85 84.08,109.85 39.97,0 79.94,0 119.91,0 79.91,1.13 79.91,-109.84 0,-102.87 -44.18,0 -88.35,0 -132.51,0"/>
       </g>
       <g>
        <path class="fil7 str4" d="M5895.48 2652.38c0,174.95 0.01,349.89 0.01,524.84 5.58,83.98 109.4,116.69 129.03,0 13.05,116.69 120.88,89.23 127.28,0 0,-235.98 0,-450.43 0,-686.4 -3.23,-91.26 9.85,-91.28 68,-91.26l208.03 0"/>
       </g>
       <g>
        <path class="fil7 str4" d="M6025.03 3211.39c0,-127.24 0,-254.48 0,-381.71 0,-28.47 18.38,-61.2 37.3,-70.94"/>
       </g>
       <g>
        <path class="fil7 str8" d="M6687.24 2548.48c1.03,5.81 1.57,11.8 1.57,17.91 0,57.35 -47.14,103.84 -105.3,103.84 -58.16,0 -105.31,-46.49 -105.31,-103.84 0,-6.75 0.67,-13.35 1.92,-19.74 73.74,0.29 132.88,1.57 207.12,1.83z"/>
       </g>
       <path class="fil8" d="M6576.29 2202.01l0 -37.33 -1.08 0c-7.96,0 -13.91,1.55 -17.89,4.54 -3.97,3 -5.94,7.58 -5.94,13.73 0,4.67 1.83,8.42 5.52,11.33 3.69,2.85 10.16,5.47 19.39,7.73zm-3.27 154.02l0 -23.32c-23.56,-0.89 -41.72,-7.17 -54.61,-18.82 -12.88,-11.67 -19.38,-27.77 -19.57,-48.34l50.58 0c0.56,10.45 2.62,17.94 6.18,22.53 3.56,4.53 9.04,6.98 16.48,7.26l0.09 -45.29c-24.87,-5.48 -42.84,-13.02 -53.9,-22.57 -11.09,-9.55 -16.62,-22.23 -16.62,-38.07 0,-17.57 6.6,-31.75 19.86,-42.47 13.2,-10.77 31,-16.35 53.43,-16.82l0 -17.7 21.96 0 0 17.42c21.31,0.57 37.93,6.04 49.87,16.53 11.9,10.49 18.22,25.1 18.97,43.83l-48.05 0c-0.46,-8.05 -2.43,-14.14 -5.98,-18.36 -3.57,-4.2 -8.68,-6.41 -15.36,-6.59l0 41.58c26.36,6.32 45.05,14.37 56,24.21 11.01,9.82 16.48,23.08 16.48,39.81 0.01,19.38 -6.22,34.23 -18.68,44.53 -12.41,10.25 -31.14,16.16 -56.14,17.61l0 23.04 -20.99 0zm19.62 -60.69c8.72,0 15.28,-1.55 19.76,-4.68 4.45,-3.09 6.7,-7.73 6.7,-13.87 0,-5.29 -1.92,-9.5 -5.71,-12.68 -3.79,-3.15 -10.67,-6.14 -20.75,-9l0 40.22z"/>
       <g>
        <path class="fil7 str9" d="M6450.05 2461.55c92.21,0.65 171.25,1.29 263.46,1.94 59.01,8.69 46.45,85.03 0,85.03 -97.43,0 -166.03,-1.94 -263.46,-1.94 -41.23,-9.01 -44.14,-74.4 0,-85.03z"/>
       </g>
      </g>
     </g>
    </g>
   </g>
  </g>
 </g>
</svg>
